<?xml version="1.0" standalone="no"?><!DOCTYPE svg PUBLIC "-//W3C//DTD SVG 1.1//EN" "http://www.w3.org/Graphics/SVG/1.1/DTD/svg11.dtd"><svg t="1583306306610" class="icon" viewBox="0 0 1024 1024" version="1.1" xmlns="http://www.w3.org/2000/svg" p-id="1755" xmlns:xlink="http://www.w3.org/1999/xlink" width="200" height="200"><defs><style type="text/css"></style></defs><path d="M819.2 636.929V532.48c0-45.055-36.863-81.922-81.918-81.922H539.485v-61.437c45.055 0 74.914-36.863 74.914-81.922v-40.957c0-45.059-36.863-81.922-81.918-81.922H491.52c-45.055 0-81.922 36.863-81.922 81.922v40.957c0 45.059 28.862 81.922 73.917 81.922v61.437H286.718c-45.054 0-81.918 36.867-81.918 81.922v104.449c-34.816 8.192-61.441 40.957-61.441 79.871v40.961c0 45.055 36.863 81.918 81.922 81.918h40.957c45.059 0 81.922-36.863 81.922-81.918V716.8c0-45.054-36.863-81.921-81.922-81.921h-5.472V532.48c0-22.527 3.425-25.952 25.952-25.952h196.796V634.88c-45.055 0-73.917 36.867-73.917 81.921v40.961c0 45.055 36.867 81.918 81.922 81.918h40.961c45.055 0 81.918-36.863 81.918-81.918V716.8c0-45.054-29.859-81.921-74.914-81.921v-128.35h197.797c22.527 0 25.948 3.425 25.948 25.952V634.88h-5.472c-45.054 0-81.918 36.867-81.918 81.921v40.961c0 45.055 36.864 81.918 81.918 81.918h40.961c45.055 0 81.922-36.863 81.922-81.918V716.8c0.001-38.914-26.624-69.632-61.44-79.871z m-353.632-329.73v-40.957c0-22.531 3.424-25.952 25.952-25.952h40.961c22.527 0 25.948 3.421 25.948 25.952v40.957c0 22.527-3.421 25.952-25.948 25.952H491.52c-22.528 0-25.952-3.425-25.952-25.952zM292.19 716.8v40.961c0 22.528-3.425 25.948-25.952 25.948h-40.957c-22.531 0-25.952-3.419-25.952-25.948V716.8c0-22.527 3.421-25.951 25.952-25.951h40.957c22.528 0.001 25.952 3.424 25.952 25.951z m266.238 0v40.961c0 22.528-3.421 25.948-25.948 25.948h-40.96c-22.527 0-25.952-3.419-25.952-25.948V716.8c0-22.527 3.424-25.951 25.952-25.951h40.961c22.526 0.001 25.947 3.424 25.947 25.951z m266.242 40.961c0 22.528-3.424 25.948-25.952 25.948h-40.961c-22.527 0-25.948-3.419-25.948-25.948V716.8c0-22.527 3.421-25.951 25.948-25.951h40.961c22.528 0 25.952 3.424 25.952 25.951v40.961z m15.01 0" p-id="1756" fill="#ffffff"></path></svg>