<?xml version="1.0" standalone="no"?><!DOCTYPE svg PUBLIC "-//W3C//DTD SVG 1.1//EN" "http://www.w3.org/Graphics/SVG/1.1/DTD/svg11.dtd"><svg t="1581943714194" class="icon" viewBox="0 0 1024 1024" version="1.1" xmlns="http://www.w3.org/2000/svg" p-id="3534" xmlns:xlink="http://www.w3.org/1999/xlink" width="200" height="200"><defs><style type="text/css"></style></defs><path d="M466.432057 344.362236a248.106357 248.106357 0 0 0-122.45318 124.159845c-6.997325 15.786647 0.426666 34.133291 16.554646 40.959949 4.095995 1.706665 8.362656 2.51733 12.629317 2.51733a31.786627 31.786627 0 0 0 29.22663-18.77331 185.429102 185.429102 0 0 1 91.477219-92.757217 30.719962 30.719962 0 0 0 15.018648-41.386615 32.213293 32.213293 0 0 0-42.45328-14.719982zM777.130335 511.99936a33.621291 33.621291 0 0 0-33.663958 33.621291 198.015752 198.015752 0 0 1-197.802419 197.759753 33.621291 33.621291 0 1 0 0 67.285249 263.338337 263.338337 0 0 0 187.391766-77.567903A263.167671 263.167671 0 0 0 810.666293 545.705985a33.493291 33.493291 0 0 0-33.535958-33.749292z" p-id="3535" fill="#ffffff"></path><path d="M1014.399372 967.721457l-148.906481-149.03448a392.19151 392.19151 0 0 0 92.714551-253.86635 392.19151 392.19151 0 0 0-31.018628-153.429141 390.996845 390.996845 0 0 0-84.394561-125.22651 393.940841 393.940841 0 0 0-125.141177-84.479895A391.167511 391.167511 0 0 0 564.479934 170.666453a391.167511 391.167511 0 0 0-153.258475 31.018628 390.612845 390.612845 0 0 0-125.141177 84.479895 394.367507 394.367507 0 0 0-84.394561 125.22651A392.19151 392.19151 0 0 0 170.667093 564.777961c0 53.205267 10.45332 104.831869 30.975962 153.386475a390.996845 390.996845 0 0 0 84.394561 125.269176 393.940841 393.940841 0 0 0 125.141177 84.479895 391.167511 391.167511 0 0 0 153.258475 30.975961 391.167511 391.167511 0 0 0 254.677015-93.61055l148.90648 149.077147a32.767959 32.767959 0 0 0 46.378609 0c12.799984-12.927984 12.799984-33.791958 0-46.634608z m-449.962104-74.623907c-180.906441 0-328.106257-147.327816-328.106257-328.404923 0-181.119774 147.199816-328.404923 328.106257-328.404922s328.106257 147.285149 328.106256 328.404922c0 181.077107-147.285149 328.404923-328.106256 328.404923z" p-id="3536" fill="#ffffff"></path><path d="M326.101566 959.9988H143.104461c-42.83728 0-77.653236-34.133291-77.653236-75.989238V139.946492c0-41.898614 34.815956-75.989238 77.653236-75.989239h695.124465c42.83728 0 77.653236 34.133291 77.653236 75.989239v92.714551c0 17.706645 14.634648 31.99996 32.725292 31.99996a32.341293 32.341293 0 0 0 32.725293-31.99996V139.946492C981.332747 62.762588 917.119494 0 838.228926 0H143.104461C64.171226 0 0.00064 62.805255 0.00064 139.989158V884.052228C0.00064 961.236132 64.213893 1023.99872 143.104461 1023.99872h182.997105a32.341293 32.341293 0 0 0 32.682626-31.99996 32.341293 32.341293 0 0 0-32.682626-31.99996z" p-id="3537" fill="#ffffff"></path></svg>