<?xml version="1.0" standalone="no"?><!DOCTYPE svg PUBLIC "-//W3C//DTD SVG 1.1//EN" "http://www.w3.org/Graphics/SVG/1.1/DTD/svg11.dtd"><svg t="1578232699979" class="icon" viewBox="0 0 1024 1024" version="1.1" xmlns="http://www.w3.org/2000/svg" p-id="2366" xmlns:xlink="http://www.w3.org/1999/xlink" width="200" height="200"><defs><style type="text/css"></style></defs><path d="M131.488 221.664a44.544 44.544 0 0 0-43.872 45.12v557.984c0 24.928 19.584 45.088 43.872 45.088H876.48c56.192 3.84 44.192-217.792 43.84-242.304v-45.088c0-24.928 19.584-45.152 43.872-45.152 24.224 0 43.84 20.224 43.84 45.152v287.392C1007.968 919.712 968.704 960 920.32 960H87.616C39.232 960 0 919.712 0 869.888V221.664c0-49.856 39.232-90.208 87.616-90.208h43.872c24.16 0 43.84 20.192 43.84 45.088a44.544 44.544 0 0 1-43.84 45.12z m0 0" p-id="2367"></path><path d="M523.84 615.04c-18.432 0-36.8-7.008-50.848-20.992l-205.312-205.376a71.936 71.936 0 0 1 0-101.696 71.84 71.84 0 0 1 101.664 0l154.496 154.496L885.312 80a71.904 71.904 0 0 1 101.696 101.664L574.656 593.984a71.584 71.584 0 0 1-50.816 21.056z m0 0" p-id="2368"></path></svg>