<?xml version="1.0" standalone="no"?><!DOCTYPE svg PUBLIC "-//W3C//DTD SVG 1.1//EN" "http://www.w3.org/Graphics/SVG/1.1/DTD/svg11.dtd"><svg t="1578233228237" class="icon" viewBox="0 0 1024 1024" version="1.1" xmlns="http://www.w3.org/2000/svg" p-id="6114" xmlns:xlink="http://www.w3.org/1999/xlink" width="200" height="200"><defs><style type="text/css"></style></defs><path d="M834.304 398.272l-317.632 90.24a87.808 87.808 0 0 1-61.568-0.32L199.424 395.008v211.84c24.576 15.36 66.624 39.168 120.96 60.608 76.608 30.208 193.152 61.248 322.88 43.84a23.168 23.168 0 0 1 26.048 17.92l0.64 3.072a22.4 22.4 0 0 1-19.648 25.92 629.504 629.504 0 0 1-117.888 4.736 667.904 667.904 0 0 1-64.64-6.464 762.752 762.752 0 0 1-167.68-45.76c-63.104-24.96-110.08-52.736-135.232-68.864-0.96-0.576-1.728-1.28-2.56-1.984a24.448 24.448 0 0 1-12.544-21.184v-241.92l-121.6-44.352a41.6 41.6 0 0 1-27.712-41.088 41.792 41.792 0 0 1 31.616-38.4l471.296-119.936c19.52-5.44 40.256-5.44 59.712-0.192l427.968 136.128c18.752 5.568 31.552 21.12 32.64 39.936a44.096 44.096 0 0 1-28.8 43.84l-112.384 31.872a18.56 18.56 0 0 1-1.024 1.92 20.8 20.8 0 0 1 2.304 9.6v141.76c27.968 9.728 48 35.328 48 65.28 0 22.848-11.712 43.264-29.696 55.936l50.24 128c5.12 12.608 3.2 26.944-4.736 38.208a44.032 44.032 0 0 1-35.712 17.92H806.4a44.16 44.16 0 0 1-35.712-17.92 40.064 40.064 0 0 1-4.992-38.144l50.304-128a68.48 68.48 0 0 1-29.696-55.872c0-29.952 19.968-55.552 47.936-65.28V398.272z m24.704 182.72a22.592 22.592 0 0 0-23.104 22.016c0 12.224 10.24 22.08 23.04 22.08 12.8 0 23.104-9.856 23.104-22.08a22.528 22.528 0 0 0-23.04-22.016z m-43.712 214.656h87.36l-43.648-111.36-43.712 111.36z m-314.24-352.32L967.04 311.04 548.8 178.176a62.272 62.272 0 0 0-31.68 0.32L62.592 294.272 473.6 444.032c8.32 3.2 17.6 3.2 25.92-0.128l1.472-0.64z" p-id="6115"></path></svg>