<?xml version="1.0" standalone="no"?><!DOCTYPE svg PUBLIC "-//W3C//DTD SVG 1.1//EN" "http://www.w3.org/Graphics/SVG/1.1/DTD/svg11.dtd"><svg t="1578218788729" class="icon" viewBox="0 0 1024 1024" version="1.1" xmlns="http://www.w3.org/2000/svg" p-id="12049" xmlns:xlink="http://www.w3.org/1999/xlink" width="200" height="200"><defs><style type="text/css"></style></defs><path d="M1006.933333 836.266667H17.066667a17.066667 17.066667 0 0 0 0 34.133333h989.866666a17.066667 17.066667 0 1 0 0-34.133333z m0 136.533333H17.066667a17.066667 17.066667 0 0 0 0 34.133333h989.866666a17.066667 17.066667 0 1 0 0-34.133333zM11.9808 596.548267a16.9984 16.9984 0 0 0 21.4016-11.195734L82.978133 426.666667H292.522667l49.595733 158.685866a17.066667 17.066667 0 0 0 32.597333-10.171733l-50.961066-163.054933c0.136533-0.853333 0.512-1.6384 0.512-2.525867a16.896 16.896 0 0 0-5.085867-12.117333L204.049067 29.047467c-4.471467-14.267733-28.125867-14.267733-32.597334 0L56.32 397.448533A17.032533 17.032533 0 0 0 51.2 409.6c0 0.9216 0.375467 1.706667 0.512 2.594133L0.785067 575.1808a17.066667 17.066667 0 0 0 11.195733 21.367467zM187.733333 91.3408L281.838933 392.533333H93.627733L187.733333 91.3408z m238.933334-40.1408h580.266666a17.066667 17.066667 0 1 0 0-34.133333h-580.266666a17.066667 17.066667 0 0 0 0 34.133333z m580.266666 102.4h-580.266666a17.066667 17.066667 0 0 0 0 34.133333h580.266666a17.066667 17.066667 0 1 0 0-34.133333z m0 273.066667h-580.266666a17.066667 17.066667 0 0 0 0 34.133333h580.266666a17.066667 17.066667 0 1 0 0-34.133333z m0-136.533334h-580.266666a17.066667 17.066667 0 0 0 0 34.133334h580.266666a17.066667 17.066667 0 1 0 0-34.133334z m0 409.6H17.066667a17.066667 17.066667 0 0 0 0 34.133334h989.866666a17.066667 17.066667 0 1 0 0-34.133334z m0-136.533333h-580.266666a17.066667 17.066667 0 0 0 0 34.133333h580.266666a17.066667 17.066667 0 1 0 0-34.133333z" fill="" p-id="12050"></path></svg>