<?xml version="1.0" standalone="no"?><!DOCTYPE svg PUBLIC "-//W3C//DTD SVG 1.1//EN" "http://www.w3.org/Graphics/SVG/1.1/DTD/svg11.dtd"><svg t="1578218683186" class="icon" viewBox="0 0 1024 1024" version="1.1" xmlns="http://www.w3.org/2000/svg" p-id="9723" xmlns:xlink="http://www.w3.org/1999/xlink" width="200" height="200"><defs><style type="text/css"></style></defs><path d="M866.304 1021.44H157.696a111.0016 111.0016 0 0 1-109.056-113.152V115.712C47.616 54.272 96.256 3.584 157.696 2.56h572.416V10.24c92.16 18.432 230.912 78.848 243.712 274.944h2.048v622.592a111.616 111.616 0 0 1-109.568 113.664zM730.112 68.096v189.44h185.856a229.0176 229.0176 0 0 0-185.856-189.44z m190.976 245.76H675.84V60.928c-9.216-0.512-17.408-1.536-27.136-1.536H184.832c-46.08 1.024-82.432 38.912-81.92 84.992v735.744c-1.024 46.08 35.84 83.968 81.92 84.992h654.336c46.08-1.024 82.432-38.912 81.92-84.992V313.856z m-362.496 568.832H464.896v-414.72H281.6V373.76h462.848v94.72h-185.856v414.208z m0 0" p-id="9724"></path></svg>