<?xml version="1.0" standalone="no"?><!DOCTYPE svg PUBLIC "-//W3C//DTD SVG 1.1//EN" "http://www.w3.org/Graphics/SVG/1.1/DTD/svg11.dtd"><svg t="1578218709681" class="icon" viewBox="0 0 1024 1024" version="1.1" xmlns="http://www.w3.org/2000/svg" p-id="10546" xmlns:xlink="http://www.w3.org/1999/xlink" width="200" height="200"><defs><style type="text/css"></style></defs><path d="M820.224 466.944c-12.288 0-22.528 9.728-22.528 21.504v365.568c0 23.552-19.968 43.008-44.544 43.008H172.032c-24.576 0-44.544-18.944-44.544-43.008V169.472c0-23.552 19.968-43.008 44.544-43.008h355.84c12.288 0 22.016-9.728 22.016-21.504s-9.728-21.504-22.016-21.504H172.032c-49.152 0-89.6 38.4-89.6 85.504v684.544c0 47.104 39.936 85.504 89.6 85.504h581.632c49.152 0 89.6-38.4 89.6-85.504V490.496v-2.048c-0.512-11.776-10.24-21.504-23.04-21.504z m15.872-321.536c-26.112-25.088-68.608-25.088-94.72 0l-5.12 5.12-293.376 280.064-34.816 123.904 129.536-33.28 262.656-250.88 35.84-34.304c26.112-24.576 26.112-65.536 0-90.624z m-68.608 96.256l-252.928 241.664-43.008 11.264 11.776-41.472 252.416-241.664 10.24 9.728 21.504 20.48z m-426.496 285.184H251.392c-12.288 0-22.528 9.728-22.528 21.504s10.24 21.504 22.528 21.504h89.6c12.288 0 22.528-9.728 22.528-21.504s-10.24-21.504-22.528-21.504z m-120.32 185.344c0 11.776 10.24 21.504 22.528 21.504h439.296c12.288 0 22.528-9.728 22.528-21.504 0-11.776-10.24-21.504-22.528-21.504H243.2c-12.8 0-22.528 9.728-22.528 21.504z" p-id="10547"></path></svg>