<?xml version="1.0" standalone="no"?><!DOCTYPE svg PUBLIC "-//W3C//DTD SVG 1.1//EN" "http://www.w3.org/Graphics/SVG/1.1/DTD/svg11.dtd"><svg t="1581407641981" class="icon" viewBox="0 0 1024 1024" version="1.1" xmlns="http://www.w3.org/2000/svg" p-id="4010" data-spm-anchor-id="a313x.7781069.0.i8" xmlns:xlink="http://www.w3.org/1999/xlink" width="200" height="200"><defs><style type="text/css"></style></defs><path d="M512 960C265 960 64 759 64 512S265 64 512 64c247 0 448 201 448 448S759 960 512 960zM512 105.1c-224.4 0-406.9 182.5-406.9 406.9 0 224.4 182.5 406.9 406.9 406.9 224.4 0 406.9-182.5 406.9-406.9C918.9 287.6 736.4 105.1 512 105.1zM566.7 757.6 457.2 757.6 457.2 566.7 266.3 566.7 266.3 457.2l190.9 0L457.2 266.3l109.5 0 0 190.9 190.9 0 0 109.5L566.7 566.7 566.7 757.6z" p-id="4011" fill="#ffffff"></path></svg>