<?xml version="1.0" standalone="no"?><!DOCTYPE svg PUBLIC "-//W3C//DTD SVG 1.1//EN" "http://www.w3.org/Graphics/SVG/1.1/DTD/svg11.dtd"><svg t="1578218740401" class="icon" viewBox="0 0 1024 1024" version="1.1" xmlns="http://www.w3.org/2000/svg" p-id="11302" xmlns:xlink="http://www.w3.org/1999/xlink" width="200" height="200"><defs><style type="text/css"></style></defs><path d="M866.461538 236.307692H157.538462a157.538462 157.538462 0 0 0-157.538462 157.538462v472.615384a157.538462 157.538462 0 0 0 157.538462 157.538462h708.923076a157.538462 157.538462 0 0 0 157.538462-157.538462V393.846154a157.538462 157.538462 0 0 0-157.538462-157.538462zM157.538462 315.076923h708.923076a78.769231 78.769231 0 0 1 78.769231 78.769231v118.153846h-236.307692v-39.384615a39.384615 39.384615 0 0 0-78.769231 0v39.384615h-236.307692v-39.384615a39.384615 39.384615 0 0 0-78.769231 0v39.384615H78.769231v-118.153846a78.769231 78.769231 0 0 1 78.769231-78.769231z m708.923076 630.153846H157.538462a78.769231 78.769231 0 0 1-78.769231-78.769231v-275.692307h236.307692v39.384615a39.384615 39.384615 0 0 0 78.769231 0v-39.384615h236.307692v39.384615a39.384615 39.384615 0 0 0 78.769231 0v-39.384615h236.307692v275.692307a78.769231 78.769231 0 0 1-78.769231 78.769231zM275.692308 196.923077a39.384615 39.384615 0 0 0 39.384615-39.384615 78.769231 78.769231 0 0 1 78.769231-78.769231h236.307692a78.769231 78.769231 0 0 1 78.769231 78.769231 39.384615 39.384615 0 0 0 78.769231 0 157.538462 157.538462 0 0 0-157.538462-157.538462h-236.307692a157.538462 157.538462 0 0 0-157.538462 157.538462 39.384615 39.384615 0 0 0 39.384616 39.384615z" fill="" p-id="11303"></path></svg>