<?xml version="1.0" standalone="no"?><!DOCTYPE svg PUBLIC "-//W3C//DTD SVG 1.1//EN" "http://www.w3.org/Graphics/SVG/1.1/DTD/svg11.dtd"><svg t="1578277217026" class="icon" viewBox="0 0 1024 1024" version="1.1" xmlns="http://www.w3.org/2000/svg" p-id="2608" xmlns:xlink="http://www.w3.org/1999/xlink" width="200" height="200"><defs><style type="text/css"></style></defs><path d="M664.91863 758.009542C595.841857 808.209805 510.833178 837.818182 418.909091 837.818182 187.551988 837.818182 0 650.266195 0 418.909091 0 187.551988 187.551988 0 418.909091 0 650.266195 0 837.818182 187.551988 837.818182 418.909091 837.818182 510.833178 808.209805 595.841857 758.009542 664.91863L1024 930.909088 930.909088 1024 664.91863 758.009542 664.91863 758.009542ZM418.883423 698.243411C573.169683 698.243411 698.243411 573.169683 698.243411 418.883423 698.243411 264.597164 573.169683 139.523437 418.883423 139.523437 264.597164 139.523437 139.523437 264.597164 139.523437 418.883423 139.523437 573.169683 264.597164 698.243411 418.883423 698.243411Z" p-id="2609"></path></svg>