<?xml version="1.0" standalone="no"?><!DOCTYPE svg PUBLIC "-//W3C//DTD SVG 1.1//EN" "http://www.w3.org/Graphics/SVG/1.1/DTD/svg11.dtd"><svg t="1578218024445" class="icon" viewBox="0 0 1024 1024" version="1.1" xmlns="http://www.w3.org/2000/svg" p-id="7956" xmlns:xlink="http://www.w3.org/1999/xlink" width="200" height="200"><defs><style type="text/css"></style></defs><path d="M928.88177778 984.34465185c-15.04900741-66.26417778-110.80438518-205.71022222-274.88711111-260.8090074C784.9453037 667.22322963 877.18115555 535.78714075 877.18115555 383.35525925c0-204.1325037-164.08272592-370.2784-365.6666074-370.2784-201.70524445 0-365.66660741 166.02453333-365.6666074 369.6715852 0 152.55324445 92.35721482 283.98933333 223.18648888 340.18038518-164.08272592 55.22014815-259.8381037 194.66619259-274.88711111 260.93037037-3.03407408 14.0781037 5.46133333 28.64165925 19.53943703 31.55437037 2.06317037 0.48545185 4.00497778 0.48545185 6.06814815 0.48545185 12.01493333 0 22.57351111-8.00995555 25.60758519-20.51034074 15.53445925-69.17688889 147.94145185-243.33274075 366.75887408-243.33274073 218.69605925 0 350.6176 174.03448889 366.27342221 243.33274073 2.54862222 12.01493333 13.59265185 20.51034075 25.60758519 20.51034074 2.06317037 0 4.00497778 0 6.06814815-0.48545185 13.34992592-3.03407408 21.84533333-17.11217778 18.81125926-31.06891852zM511.51454815 65.74838518c173.06358518 0 313.48053333 141.99466667 313.48053333 317.00005927 0 5.46133333-0.48545185 11.52948148-0.9709037 17.11217777-79.25001482-4.00497778-143.45102222-46.60337778-196.608-132.40699259-4.49042963-7.5245037-12.50038518-12.01493333-21.60260741-12.50038518-9.58767408 0.48545185-17.11217778 4.00497778-22.08805926 11.04402963-66.74962963 95.26992592-147.456 116.38708148-203.64705186 116.87253333-85.31816297 0.48545185-152.55324445-39.68568889-174.03448888-68.69143704 31.06891852-142.11602963 155.95140741-248.42998518 305.47057778-248.42998519zM197.91265185 382.74844445v-4.00497778c43.08385185 31.55437037 109.83348148 57.64740741 182.65125926 57.16195555 61.65238518-0.9709037 147.94145185-21.60260741 223.18648889-109.34802963 58.25422222 78.76456297 129.97973333 120.87751111 213.23472592 125.97475556-31.06891852 141.50921482-156.55822222 247.33771852-305.47057777 247.33771852-173.06358518-0.48545185-313.6018963-142.48011852-313.6018963-317.12142222z m0 0" p-id="7957"></path></svg>