<?xml version="1.0" standalone="no"?><!DOCTYPE svg PUBLIC "-//W3C//DTD SVG 1.1//EN" "http://www.w3.org/Graphics/SVG/1.1/DTD/svg11.dtd"><svg t="1581944040767" class="icon" viewBox="0 0 1024 1024" version="1.1" xmlns="http://www.w3.org/2000/svg" p-id="1712" xmlns:xlink="http://www.w3.org/1999/xlink" width="200" height="200"><defs><style type="text/css"></style></defs><path d="M774.4 524.8c0-6.4-6.4-6.4 0 0-12.8-12.8-25.6-19.2-32-19.2-12.8 0-25.6 6.4-25.6 12.8 0 0-6.4 0-6.4 6.4l-192 192c-12.8 12.8-12.8 32 0 51.2 12.8 12.8 38.4 12.8 51.2 0L704 620.8v352c0 19.2 12.8 32 32 32s32-12.8 32-32V620.8l140.8 140.8c12.8 12.8 38.4 12.8 51.2 0 12.8-12.8 12.8-32 0-51.2l-185.6-185.6z" fill="#ffffff" p-id="1713"></path><path d="M928 492.8c19.2 0 32-12.8 32-32V147.2c0-25.6-6.4-51.2-19.2-76.8-19.2-32-44.8-51.2-76.8-64-25.6-6.4-51.2-6.4-70.4-6.4H172.8c-19.2 0-38.4 0-57.6 6.4C44.8 19.2 0 83.2 0 147.2v723.2c0 44.8 19.2 83.2 51.2 115.2 25.6 25.6 57.6 38.4 96 38.4h294.4c19.2 0 32-12.8 32-32s-12.8-32-32-32H153.6h-6.4-6.4H128c-6.4 0-6.4 0-12.8-6.4h-6.4l-6.4-6.4s-6.4 0-6.4-6.4c-6.4-6.4-6.4 0 0 0l-12.8-12.8-6.4-6.4-6.4-6.4-6.4-6.4v-6.4-19.2s0 6.4 0 0v-6.4V147.2v-6.4-6.4c0-6.4 0-12.8 6.4-19.2v-6.4s0-6.4 6.4-6.4l6.4-6.4 6.4-6.4 6.4-6.4 6.4-6.4c6.4-6.4 6.4 0 0 0 6.4-6.4 12.8-6.4 19.2-12.8h12.8 710.4c6.4 0 6.4 0 0 0 6.4 0 12.8 6.4 19.2 12.8h6.4l6.4 6.4 6.4 6.4 6.4 6.4c6.4 6.4 6.4 12.8 6.4 12.8v352c0 19.2 12.8 32 32 32z" fill="#ffffff" p-id="1714"></path><path d="M665.6 224c0-19.2-12.8-32-32-32H224c-12.8 0-25.6 12.8-25.6 32s12.8 32 25.6 32h409.6c19.2 0 32-19.2 32-32zM224 576c-12.8 0-25.6 12.8-25.6 32s12.8 32 32 32h160c19.2 0 32-12.8 32-32S409.6 576 390.4 576H224zM601.6 416c0-19.2-12.8-32-32-32H224c-12.8 0-25.6 12.8-25.6 32 0 12.8 12.8 32 25.6 32h345.6c19.2 0 32-19.2 32-32z" fill="#ffffff" p-id="1715"></path></svg>