<?xml version="1.0" standalone="no"?><!DOCTYPE svg PUBLIC "-//W3C//DTD SVG 1.1//EN" "http://www.w3.org/Graphics/SVG/1.1/DTD/svg11.dtd"><svg t="1581944230707" class="icon" viewBox="0 0 1024 1024" version="1.1" xmlns="http://www.w3.org/2000/svg" p-id="4560" xmlns:xlink="http://www.w3.org/1999/xlink" width="200" height="200"><defs><style type="text/css"></style></defs><path d="M752 192c26.496 0 48-21.504 48-48L800 48c0-26.496-21.504-48-48-48s-48 21.504-48 48l0 96C704 170.496 725.504 192 752 192z" p-id="4561" fill="#ffffff"></path><path d="M512 192c26.496 0 48-21.504 48-48L560 48c0-26.496-21.504-48-48-48s-48 21.504-48 48l0 96C464 170.496 485.504 192 512 192z" p-id="4562" fill="#ffffff"></path><path d="M928 96l-80 0 0 48c0 53.008-42.976 96-96 96-53.008 0-96-43.008-96-96L656 96l-48 0 0 48c0 53.008-42.976 96-96 96-53.008 0-96-43.008-96-96L416 96l-48 0 0 48c0 53.008-42.976 96-96 96-53.008 0-96-43.008-96-96L176 96 96 96C69.504 96 48 117.504 48 144l0 832c0 26.496 21.504 48 48 48l832 0c26.496 0 48-21.504 48-48L976 144C976 117.504 954.496 96 928 96zM808 864l-592 0c-22.096 0-40-17.904-40-40s17.904-40 40-40l592 0c22.096 0 40 17.904 40 40S830.096 864 808 864zM800 672 224 672c-26.496 0-48-21.504-48-48s21.504-48 48-48l576 0c26.496 0 48 21.504 48 48S826.496 672 800 672zM800 464 224 464c-26.496 0-48-21.504-48-48s21.504-48 48-48l576 0c26.496 0 48 21.504 48 48S826.496 464 800 464z" p-id="4563" fill="#ffffff"></path><path d="M272 192c26.496 0 48-21.504 48-48L320 48c0-26.496-21.504-48-48-48s-48 21.504-48 48l0 96C224 170.496 245.504 192 272 192z" p-id="4564" fill="#ffffff"></path></svg>