<?xml version="1.0" standalone="no"?><!DOCTYPE svg PUBLIC "-//W3C//DTD SVG 1.1//EN" "http://www.w3.org/Graphics/SVG/1.1/DTD/svg11.dtd"><svg t="1578233301145" class="icon" viewBox="0 0 1024 1024" version="1.1" xmlns="http://www.w3.org/2000/svg" p-id="7110" xmlns:xlink="http://www.w3.org/1999/xlink" width="200" height="200"><defs><style type="text/css"></style></defs><path d="M852 262h-160l0.792-3.576c0-64.216-57.288-116.424-120.792-116.424H454.008c-63.504 0-122.008 55.784-122.008 120h-160c-31.856 0.176-60 26.888-60 60v560c0 39.168 21.64 60 60 60h680c38.544 0 60-22.376 60-60v-560c0-38.224-23.008-60-60-60z m-480 0c0-43.496 37.008-80 80-80h120c42.992 0 80 36.504 80 80v80h-280v-80z m500 620c0 10.384-9.728 20-20 20h-680c-10.272 0-20-9.624-20-20v-560c0-10.376 9.728-20 20-20h160v40H312c-8.896 0-20 11.008-20 20s11.104 20.008 20 20.008h400c8.896 0 20-11.016 20-20.008 0-8.984-11.104-20-20-20h-20v-40h160c10.272 0 20 9.616 20 20v560zM663.696 517.648L491.28 691.888 385.152 584.672a18.432 18.432 0 0 0-26.32 0 18.976 18.976 0 0 0 0 26.6l119.264 120.52a18.48 18.48 0 0 0 26.312 0l185.6-187.56a18.888 18.888 0 0 0 0-26.592 18.48 18.48 0 0 0-26.312 0.008z" p-id="7111"></path></svg>