<?xml version="1.0" standalone="no"?><!DOCTYPE svg PUBLIC "-//W3C//DTD SVG 1.1//EN" "http://www.w3.org/Graphics/SVG/1.1/DTD/svg11.dtd"><svg t="1578218053990" class="icon" viewBox="0 0 1024 1024" version="1.1" xmlns="http://www.w3.org/2000/svg" p-id="8082" xmlns:xlink="http://www.w3.org/1999/xlink" width="200" height="200"><defs><style type="text/css"></style></defs><path d="M511.238737 0L6.736842 183.194947 195.900632 251.823158v114.546526c0 16.363789 12.052211 32.727579 32.336842 48.121263-0.249263 4.311579-0.808421 8.555789-0.808421 12.948211 0 101.928421 46.841263 190.760421 135.949473 238.22821-143.946105 49.003789-233.344 162.526316-256.40421 306.56h0.013473a41.498947 41.498947 0 0 0-0.808421 8.124632c0 16.303158 5.834105 35.328 27.230316 37.389474 21.598316 2.074947 33.731368-12.665263 36.938105-33.697685 26.320842-172.247579 165.901474-273.717895 342.972632-273.717894 210.714947 0 311.174737 109.608421 338.304 273.738105 0.673684 4.055579 1.118316 8.064 2.499368 11.769263v0.020211h0.013474c5.867789 15.777684 16.990316 29.258105 35.84 27.02821 19.536842-2.317474 27.129263-13.44 27.129263-36.365473 0-4.446316-0.707368-8.724211-2.007579-12.746106-24.468211-142.08-113.569684-259.617684-256-308.102737 89.108211-47.386947 135.949474-136.218947 135.949474-238.147368 0-4.230737-0.478316-8.218947-0.727579-12.362105 20.203789-15.400421 32.256-32 32.256-48.774737V251.897263l126.113684-45.837474 31.521685-11.385263 31.535157-11.486315L511.238737 0z m0 646.743579c-116.298105 0-211.914105-85.726316-222.989474-195.577263 60.544 24.138105 146.236632 53.355789 227.125895 53.355789 80.976842 0 158.315789-28.806737 218.853053-52.789894C722.822737 561.273263 627.287579 646.736842 511.238737 646.736842z m246.352842-296.192c0 7.68-26.509474 17.515789-41.674105 27.715368 0 0-4.655158 3.402105-11.250527 6.938948-42.509474 24.394105-117.571368 48.485053-193.509052 48.485052-75.802947 0-150.858105-24.899368-193.381053-49.226105-5.544421-3.031579-10.206316-6.204632-10.206316-6.204631-15.892211-10.428632-38.736842-20.399158-38.736842-27.715369V284.833684l242.384842 83.146105 246.352842-83.146105v65.711158h0.020211z m-246.703158-51.018105L173.938526 183.107368 510.888421 65.657263l338.708211 117.450105-338.708211 116.426106z" p-id="8083"></path></svg>