<?xml version="1.0" standalone="no"?><!DOCTYPE svg PUBLIC "-//W3C//DTD SVG 1.1//EN" "http://www.w3.org/Graphics/SVG/1.1/DTD/svg11.dtd"><svg t="1578232897173" class="icon" viewBox="0 0 1024 1024" version="1.1" xmlns="http://www.w3.org/2000/svg" p-id="3115" xmlns:xlink="http://www.w3.org/1999/xlink" width="200" height="200"><defs><style type="text/css"></style></defs><path d="M51.48672 409.6c0-42.399451 34.400549-76.8 76.8-76.8h230.171794a25.55904 25.55904 0 0 1 25.6 25.6 25.55904 25.55904 0 0 1-25.6 25.6H128.28672A25.55904 25.55904 0 0 0 102.68672 409.6v537.6a25.55904 25.55904 0 0 0 25.6 25.6h767.543589a25.55904 25.55904 0 0 0 25.6-25.6V409.6a25.55904 25.55904 0 0 0-25.6-25.6H665.535634a25.55904 25.55904 0 0 1-25.6-25.6 25.55904 25.55904 0 0 1 25.6-25.6h230.177646c42.399451 0 76.8 34.400549 76.8 76.8v537.6c0 42.399451-34.400549 76.8-76.8 76.8H128.28672C85.887269 1024 51.48672 989.599451 51.48672 947.2V409.6z m486.171794-316.913371v649.713371c0 14.17216-11.42784 25.6-25.6 25.6s-25.6-11.42784-25.6-25.6V92.686629L368.745326 204.8l-35.769783-34.172343L512.058514 0l179.07712 170.627657-35.763931 34.172343-117.713189-112.113371z" fill="" p-id="3116"></path></svg>