<?xml version="1.0" standalone="no"?><!DOCTYPE svg PUBLIC "-//W3C//DTD SVG 1.1//EN" "http://www.w3.org/Graphics/SVG/1.1/DTD/svg11.dtd"><svg t="1581944156736" class="icon" viewBox="0 0 1102 1024" version="1.1" xmlns="http://www.w3.org/2000/svg" p-id="2739" xmlns:xlink="http://www.w3.org/1999/xlink" width="215.234375" height="200"><defs><style type="text/css"></style></defs><path d="M1102.712399 665.224645v304.978743c0 27.56781-22.448074 50.015884-50.094649 50.094649H50.094649A50.173414 50.173414 0 0 1 0 970.203388V665.224645a50.094649 50.094649 0 0 1 100.189298 0v254.884094h902.333803V665.224645a50.094649 50.094649 0 0 1 100.189298 0zM312.934026 306.606819c-13.075018 0-16.855747-8.270343-8.585404-18.115989L536.548347 7.456699a18.746111 18.746111 0 0 1 29.852 0l231.96343 281.034131c8.270343 10.003177 4.332084 18.115989-8.585404 18.115989H312.934026z m286.941519 407.215936a48.519346 48.519346 0 1 1-97.117456 0v-468.652769a48.519346 48.519346 0 0 1 97.117456 0v468.652769z" p-id="2740" fill="#ffffff"></path></svg>